<svg xmlns="http://www.w3.org/2000/svg" version="1.1" xmlns:xlink="http://www.w3.org/1999/xlink" xmlns:svgjs="http://svgjs.dev/svgjs" width="1440" height="560" preserveAspectRatio="none" viewBox="0 0 1440 560"><g mask="url(&quot;#SvgjsMask1122&quot;)" fill="none"><rect width="1440" height="560" x="0" y="0" fill="rgba(0, 120, 72, 1)"></rect><path d="M0,644.626C119.646,618.823,140.977,445.731,244.942,381.138C351.642,314.846,525.229,375.489,597.996,273.096C668.251,174.237,600.599,35.839,574.505,-82.601C550.181,-193.004,538.301,-318.759,451.613,-391.325C366.935,-462.208,240.257,-426.811,132.817,-452.335C32.844,-476.085,-56.407,-555.032,-157.384,-536.001C-260.742,-516.521,-347.97,-439.316,-405.035,-350.965C-458.589,-268.05,-448.917,-164.241,-460.79,-66.252C-472.368,29.304,-496.274,122.778,-473.777,216.367C-447.996,323.617,-405.594,429.821,-323.765,503.788C-234.652,584.339,-117.423,669.95,0,644.626" fill="#004e2f"></path><path d="M1440 999.192C1526.6970000000001 989.129 1617.498 997.562 1692.25 952.509 1768.029 906.837 1808.479 824.8530000000001 1854.57 749.328 1906.759 663.812 1986.233 582.418 1979.0929999999998 482.49 1971.883 381.575 1876.344 315.16999999999996 1817.663 232.75400000000002 1751.855 140.327 1725.3890000000001-12.019000000000005 1613.519-30.951000000000022 1497.886-50.51999999999998 1422.944 93.81099999999998 1319.14 148.389 1241.313 189.30900000000003 1147.443 191.31 1081.08 248.99400000000003 1008.759 311.85699999999997 941.028 391.486 929.9649999999999 486.668 918.978 581.199 986.6569999999999 662.4929999999999 1022.7850000000001 750.5360000000001 1060.6190000000001 842.7370000000001 1061.473 964.7629999999999 1147.084 1015.7860000000001 1232.828 1066.888 1340.849 1010.7 1440 999.192" fill="#00a261"></path></g><defs><mask id="SvgjsMask1122"><rect width="1440" height="560" fill="#ffffff"></rect></mask></defs></svg>