<svg xmlns="http://www.w3.org/2000/svg" version="1.1" xmlns:xlink="http://www.w3.org/1999/xlink" xmlns:svgjs="http://svgjs.dev/svgjs" width="1440" height="560" preserveAspectRatio="none" viewBox="0 0 1440 560"><g mask="url(&quot;#SvgjsMask1038&quot;)" fill="none"><rect width="1440" height="560" x="0" y="0" fill="url(&quot;#SvgjsLinearGradient1039&quot;)"></rect><path d="M1440 0L929.9 0L1440 250.48z" fill="rgba(255, 255, 255, .1)"></path><path d="M929.9 0L1440 250.48L1440 308.96999999999997L519.6099999999999 0z" fill="rgba(255, 255, 255, .075)"></path><path d="M519.6099999999999 0L1440 308.96999999999997L1440 363.54999999999995L355.4099999999999 0z" fill="rgba(255, 255, 255, .05)"></path><path d="M355.40999999999985 0L1440 363.54999999999995L1440 395.59999999999997L313.28999999999985 0z" fill="rgba(255, 255, 255, .025)"></path><path d="M0 560L339.27 560L0 359.38z" fill="rgba(0, 0, 0, .1)"></path><path d="M0 359.38L339.27 560L816.63 560L0 322.82z" fill="rgba(0, 0, 0, .075)"></path><path d="M0 322.82L816.63 560L1015.89 560L0 230.98z" fill="rgba(0, 0, 0, .05)"></path><path d="M0 230.98000000000002L1015.89 560L1292.65 560L0 215.83z" fill="rgba(0, 0, 0, .025)"></path></g><defs><mask id="SvgjsMask1038"><rect width="1440" height="560" fill="#ffffff"></rect></mask><linearGradient x1="15.28%" y1="-39.29%" x2="84.72%" y2="139.29%" gradientUnits="userSpaceOnUse" id="SvgjsLinearGradient1039"><stop stop-color="rgba(0, 72, 48, 1)" offset="0"></stop><stop stop-color="rgba(0, 120, 72, 1)" offset="1"></stop></linearGradient></defs></svg>