<svg xmlns="http://www.w3.org/2000/svg" version="1.1" xmlns:xlink="http://www.w3.org/1999/xlink" xmlns:svgjs="http://svgjs.dev/svgjs" width="1440" height="560" preserveAspectRatio="none" viewBox="0 0 1440 560"><g mask="url(&quot;#SvgjsMask1006&quot;)" fill="none"><rect width="1440" height="560" x="0" y="0" fill="url(&quot;#SvgjsLinearGradient1007&quot;)"></rect><path d="M1640.51 102.06C1485.6 103.35 1268.19 259.2 1041.01 258.86 813.83 258.52 842.77-6.8 741.26-28.74" stroke="rgba(255, 255, 255, 1)" stroke-width="2"></path><path d="M1484.32 316.83C1329.06 313.54 1210.6 110.26 900.74 104.03 590.88 97.8 471.76-97.98 317.16-100.93" stroke="rgba(255, 255, 255, 1)" stroke-width="2"></path><path d="M1489.43 425.45C1292.31 421.07 1056.93 164.35 750.05 151.05 443.17 137.75 491.92-91.44 380.36-103.33" stroke="rgba(255, 255, 255, 1)" stroke-width="2"></path><path d="M1597.68 143.7C1485.69 144.74 1387.22 262.59 1165.4 261.3 943.58 260.01 866.14-39.42 733.12-55.81" stroke="rgba(255, 255, 255, 1)" stroke-width="2"></path><path d="M1643.05 441.92C1449.39 437.93 1218.66 193.1 914.33 178.72 610 164.34 663.21-81.98 549.97-96.92" stroke="rgba(255, 255, 255, 1)" stroke-width="2"></path></g><defs><mask id="SvgjsMask1006"><rect width="1440" height="560" fill="#ffffff"></rect></mask><linearGradient x1="15.28%" y1="-39.29%" x2="84.72%" y2="139.29%" gradientUnits="userSpaceOnUse" id="SvgjsLinearGradient1007"><stop stop-color="rgba(0, 72, 48, 1)" offset="0"></stop><stop stop-color="rgba(0, 120, 72, 1)" offset="1"></stop></linearGradient></defs></svg>