<svg xmlns="http://www.w3.org/2000/svg" version="1.1" xmlns:xlink="http://www.w3.org/1999/xlink" xmlns:svgjs="http://svgjs.dev/svgjs" width="1440" height="560" preserveAspectRatio="none" viewBox="0 0 1440 560"><g mask="url(&quot;#SvgjsMask1630&quot;)" fill="none"><rect width="1440" height="560" x="0" y="0" fill="url(&quot;#SvgjsLinearGradient1631&quot;)"></rect><path d="M1694.12 483.87C1501.73 482.74 1256.21 324.19 944.37 310.27 632.54 296.35 697.7-29.4 569.5-58.49" stroke="rgba(255, 255, 255, 1)" stroke-width="2"></path><path d="M1585.57 159.53C1465.95 159.34 1348.9 89.53 1112.23 89.53 875.55 89.53 878.27 159.94 638.88 159.53 399.5 159.12 295.3-49.39 165.54-54.27" stroke="rgba(255, 255, 255, 1)" stroke-width="2"></path><path d="M1493.68 164.12C1382.47 166.69 1293.88 323.27 1077.29 320.92 860.69 318.57 801.4-45.18 660.89-75.03" stroke="rgba(255, 255, 255, 1)" stroke-width="2"></path><path d="M1504.48 379.16C1335.82 378.3 1193.97 239.82 845.75 233.56 497.53 227.3 368.58-66.27 187.02-73.7" stroke="rgba(255, 255, 255, 1)" stroke-width="2"></path><path d="M1629.26 157.7C1457.35 160.15 1226.79 366.68 973.52 364.9 720.25 363.12 774.55-32.53 645.65-85.04" stroke="rgba(255, 255, 255, 1)" stroke-width="2"></path></g><defs><mask id="SvgjsMask1630"><rect width="1440" height="560" fill="#ffffff"></rect></mask><linearGradient x1="15.28%" y1="-39.29%" x2="84.72%" y2="139.29%" gradientUnits="userSpaceOnUse" id="SvgjsLinearGradient1631"><stop stop-color="rgba(0, 72, 48, 1)" offset="0"></stop><stop stop-color="rgba(0, 120, 72, 1)" offset="1"></stop></linearGradient></defs></svg>