<svg xmlns="http://www.w3.org/2000/svg" version="1.1" xmlns:xlink="http://www.w3.org/1999/xlink" xmlns:svgjs="http://svgjs.dev/svgjs" width="1440" height="560" preserveAspectRatio="none" viewBox="0 0 1440 560"><g mask="url(&quot;#SvgjsMask1026&quot;)" fill="none"><rect width="1440" height="560" x="0" y="0" fill="url(&quot;#SvgjsLinearGradient1027&quot;)"></rect><path d="M1464.17 422.45C1342.93 415.89 1274.99 211.03 1033.27 198.45 791.54 185.87 722.86-12.8 602.36-18.83" stroke="rgba(255, 255, 255, 1)" stroke-width="2"></path><path d="M1562.57 303.05C1420.57 295.29 1273 52.77 1058.26 39.85 843.51 26.93 878.88-101.94 806.1-107.18" stroke="rgba(255, 255, 255, 1)" stroke-width="2"></path><path d="M1621.35 341.82C1494.68 343.57 1338.53 501.77 1137.72 493.02 936.92 484.27 1007.72 76.74 895.91-4.75" stroke="rgba(255, 255, 255, 1)" stroke-width="2"></path><path d="M1656.26 218.28C1485.46 219.03 1251.02 362.26 987.54 358.28 724.06 354.3 785.22-50.76 653.18-105.47" stroke="rgba(255, 255, 255, 1)" stroke-width="2"></path><path d="M1686.01 237.54C1551.67 239.91 1441.34 413.76 1177.38 411.14 913.41 408.52 836.65-13.74 668.74-45.55" stroke="rgba(255, 255, 255, 1)" stroke-width="2"></path></g><defs><mask id="SvgjsMask1026"><rect width="1440" height="560" fill="#ffffff"></rect></mask><linearGradient x1="15.28%" y1="-39.29%" x2="84.72%" y2="139.29%" gradientUnits="userSpaceOnUse" id="SvgjsLinearGradient1027"><stop stop-color="rgba(0, 72, 48, 1)" offset="0"></stop><stop stop-color="rgba(0, 120, 72, 1)" offset="1"></stop></linearGradient></defs></svg>