<svg xmlns="http://www.w3.org/2000/svg" version="1.1" xmlns:xlink="http://www.w3.org/1999/xlink" xmlns:svgjs="http://svgjs.dev/svgjs" width="1440" height="250" preserveAspectRatio="none" viewBox="0 0 1440 250"><g mask="url(&quot;#SvgjsMask1051&quot;)" fill="none"><rect width="1440" height="250" x="0" y="0" fill="url(&quot;#SvgjsLinearGradient1052&quot;)"></rect><path d="M12 250L262 0L413.5 0L163.5 250z" fill="url(&quot;#SvgjsLinearGradient1053&quot;)"></path><path d="M282.6 250L532.6 0L765.1 0L515.1 250z" fill="url(&quot;#SvgjsLinearGradient1053&quot;)"></path><path d="M521.2 250L771.2 0L919.7 0L669.7 250z" fill="url(&quot;#SvgjsLinearGradient1053&quot;)"></path><path d="M714.8000000000001 250L964.8000000000001 0L1303.8000000000002 0L1053.8000000000002 250z" fill="url(&quot;#SvgjsLinearGradient1053&quot;)"></path><path d="M1402 250L1152 0L1059 0L1309 250z" fill="url(&quot;#SvgjsLinearGradient1054&quot;)"></path><path d="M1172.4 250L922.4000000000001 0L631.4000000000001 0L881.4000000000001 250z" fill="url(&quot;#SvgjsLinearGradient1054&quot;)"></path><path d="M948.8 250L698.8 0L589.3 0L839.3 250z" fill="url(&quot;#SvgjsLinearGradient1054&quot;)"></path><path d="M717.1999999999999 250L467.19999999999993 0L375.69999999999993 0L625.6999999999999 250z" fill="url(&quot;#SvgjsLinearGradient1054&quot;)"></path><path d="M1227.16986449388 250L1440 37.16986449387986L1440 250z" fill="url(&quot;#SvgjsLinearGradient1053&quot;)"></path><path d="M0 250L212.83013550612014 250L 0 37.16986449387986z" fill="url(&quot;#SvgjsLinearGradient1054&quot;)"></path></g><defs><mask id="SvgjsMask1051"><rect width="1440" height="250" fill="#ffffff"></rect></mask><linearGradient x1="20.66%" y1="-119%" x2="79.34%" y2="219%" gradientUnits="userSpaceOnUse" id="SvgjsLinearGradient1052"><stop stop-color="rgba(0, 72, 48, 1)" offset="0"></stop><stop stop-color="rgba(0, 120, 72, 1)" offset="1"></stop></linearGradient><linearGradient x1="0%" y1="100%" x2="100%" y2="0%" id="SvgjsLinearGradient1053"><stop stop-color="rgba(0, 120, 72, 1)" offset="0"></stop><stop stop-opacity="0" stop-color="rgba(0, 120, 72, 1)" offset="0.66"></stop></linearGradient><linearGradient x1="100%" y1="100%" x2="0%" y2="0%" id="SvgjsLinearGradient1054"><stop stop-color="rgba(0, 120, 72, 1)" offset="0"></stop><stop stop-opacity="0" stop-color="rgba(0, 120, 72, 1)" offset="0.66"></stop></linearGradient></defs></svg>